<svg xmlns="http://www.w3.org/2000/svg" viewBox="0 0 260 220" role="img" aria-labelledby="titleEquip">
  <title id="titleEquip">Herramientas industriales</title>
  <rect width="260" height="220" rx="32" fill="#f3f4f6" />
  <!-- Caja de herramientas -->
  <rect x="60" y="80" width="140" height="100" rx="8" fill="#374151" />
  <rect x="70" y="90" width="120" height="80" rx="4" fill="#4b5563" />
  <!-- Herramientas -->
  <!-- Martillo -->
  <rect x="80" y="100" width="20" height="8" rx="2" fill="#f59e0b" />
  <rect x="85" y="95" width="10" height="15" rx="2" fill="#d97706" />
  <!-- Destornillador -->
  <rect x="110" y="100" width="4" height="25" fill="#6b7280" />
  <polygon points="108,95 116,95 112,100" fill="#9ca3af" />
  <!-- Llave inglesa -->
  <rect x="125" y="105" width="20" height="8" rx="4" fill="#ef4444" />
  <circle cx="135" cy="109" r="6" fill="#dc2626" />
  <!-- Alicates -->
  <path d="M150 100 L160 110 L155 115 L145 105 Z" fill="#10b981" />
  <path d="M160 110 L170 100 L175 105 L165 115 Z" fill="#059669" />
  <!-- Tapa -->
  <rect x="60" y="70" width="140" height="15" rx="8" fill="#1f2937" />
</svg>